<?xml version="1.0" encoding="UTF-8"?>
<svg id="Layer_1" xmlns="http://www.w3.org/2000/svg" version="1.1" fill="#7c3aed" viewBox="0 0 500 500">

  <path d="M457.9,88.2l-133,323.6h-1.9c0,.1-36.8-91.7-36.8-91.7l-.3-3.1,76.7-186.6c28.8-13.3,57.7-27.2,86.9-39.6,1.3-.5,7.5-3.5,8.3-2.7h0Z"/>
  <path  d="M177.2,411.8h-2.1S42.1,88.2,42.1,88.2c.7-.7,6,1.7,7.2,2.2,29.2,11.8,57.7,27.1,86.9,39l1.1,1.2,77.3,187.2-37.3,94.1h0s0,0,0,0Z"/>
  <polygon  points="300.1 164.6 251.4 291 249.5 291.1 199.9 164.6 250.5 187.3 300.1 164.6"/>
</svg>